<?xml version="1.0" encoding="utf-8"?>
<!-- Generator: Adobe Illustrator 16.0.0, SVG Export Plug-In . SVG Version: 6.00 Build 0)  -->
<!DOCTYPE svg PUBLIC "-//W3C//DTD SVG 1.1//EN" "http://www.w3.org/Graphics/SVG/1.1/DTD/svg11.dtd">
<svg version="1.1" id="Layer_1" xmlns="http://www.w3.org/2000/svg" xmlns:xlink="http://www.w3.org/1999/xlink" x="0px" y="0px"
	 width="106.773px" height="90.279px" viewBox="1.047 0 106.773 90.279" enable-background="new 1.047 0 106.773 90.279"
	 xml:space="preserve">
<rect x="16.726" y="6.809" transform="matrix(-0.9404 0.3402 -0.3402 -0.9404 57.4685 27.041)" fill="#8B8B8F" width="19.275" height="23.498"/>
<rect x="64.15" y="6.64" transform="matrix(-0.9637 -0.267 0.267 -0.9637 139.9853 55.8104)" fill="#8B8B8F" width="19.273" height="23.498"/>
<ellipse fill="#9C9C9C" cx="50.07" cy="45.797" rx="35.92" ry="37.204"/>
<ellipse fill="#C7CAD5" cx="50.081" cy="57.906" rx="19.835" ry="21.74"/>
<path d="M35.734,57.23c0,0,1.242,15.275,14.519,15.275c0,0,13.925-0.81,13.871-15.275c0,0-0.864,10.849-13.871,10.849
	C50.253,68.079,37.569,68.78,35.734,57.23z"/>
<path fill="#EC1D5D" d="M44.126,69.169h11.898v5.441c0,0-0.469,7.107-5.949,7.082c0,0-5.949-0.599-5.949-7.082V69.169z"/>
<path d="M50.1,57.685c0,0-9.411,0.25-9.447-7.201c0,0,0.071-7.237,9.447-7.237c0,0,8.769,0.144,8.698,7.219
	c0,0-0.392,7.22-8.413,7.219c0,0,4.029-0.18,4.741-7.202c0,0,0.321-2.424-5.026-2.709V57.685z"/>
<ellipse cx="37.533" cy="28.982" rx="4.336" ry="5.58"/>
<ellipse cx="65.622" cy="28.982" rx="4.336" ry="5.58"/>
<ellipse fill="#FFFFFF" cx="36.28" cy="26.701" rx="2.142" ry="2.756"/>
<ellipse fill="#FFFFFF" cx="64.405" cy="26.701" rx="2.142" ry="2.756"/>
<image display="none" overflow="visible" enable-background="new    " width="792" height="752" xlink:href="8D107FC8.gif"  transform="matrix(1 0 0 1 -246.7888 -94.5371)">
</image>
<polygon fill="#6E6E79" points="22.346,7.538 31.715,4.156 30.197,14.619 28.679,25.081 20.829,18 12.978,10.919 "/>
<polygon fill="#6E6E79" points="76.891,7.079 86.488,9.745 79.193,17.397 71.898,25.049 69.596,14.73 67.294,4.412 "/>
<path fill="#C7CAD5" d="M49.725,20.158c0,0,1.006,15.077-12.192,22.126h21.264C58.798,42.285,49.583,37.194,49.725,20.158z"/>
</svg>
