<?xml version="1.0" encoding="utf-8"?>
<!-- Generator: Adobe Illustrator 16.0.0, SVG Export Plug-In . SVG Version: 6.00 Build 0)  -->
<!DOCTYPE svg PUBLIC "-//W3C//DTD SVG 1.1//EN" "http://www.w3.org/Graphics/SVG/1.1/DTD/svg11.dtd">
<svg version="1.1" id="Layer_1" xmlns="http://www.w3.org/2000/svg" xmlns:xlink="http://www.w3.org/1999/xlink" x="0px" y="0px"
	 width="87.563px" height="90.279px" viewBox="5.592 0 87.563 90.279" enable-background="new 5.592 0 87.563 90.279"
	 xml:space="preserve">
<rect x="16.725" y="6.808" transform="matrix(0.9404 -0.3402 0.3402 0.9404 -4.7409 10.0755)" fill="#8B8B8F" width="19.276" height="23.499"/>
<rect x="64.15" y="6.639" transform="matrix(0.9637 0.267 -0.267 0.9637 7.5871 -19.0316)" fill="#8B8B8F" width="19.274" height="23.498"/>
<ellipse fill="#9C9C9C" cx="50.07" cy="45.797" rx="35.92" ry="37.204"/>
<ellipse fill="#C7CAD5" cx="50.081" cy="57.906" rx="19.835" ry="21.74"/>
<path d="M-29.494,49.743c0,0,1.242,15.274,14.519,15.274c0,0,13.925-0.81,13.871-15.274c0,0-0.864,10.849-13.871,10.849
	C-14.976,60.592-27.659,61.293-29.494,49.743z"/>
<path fill="#EC1D5D" d="M-21.103,61.681h11.898v5.441c0,0-0.469,7.106-5.949,7.082c0,0-5.949-0.6-5.949-7.082V61.681z"/>
<path d="M50.1,57.685c0,0-9.411,0.25-9.447-7.201c0,0,0.071-7.237,9.447-7.237c0,0,8.769,0.145,8.697,7.219
	c0,0-0.392,7.221-8.413,7.22c0,0,4.029-0.181,4.741-7.202c0,0,0.321-2.424-5.025-2.709V57.685z"/>
<ellipse cx="37.533" cy="28.982" rx="4.336" ry="5.58"/>
<ellipse cx="65.622" cy="28.982" rx="4.336" ry="5.58"/>
<ellipse fill="#FFFFFF" cx="36.28" cy="26.701" rx="2.142" ry="2.756"/>
<ellipse fill="#FFFFFF" cx="64.405" cy="26.701" rx="2.142" ry="2.756"/>
<path fill="none" stroke="#8B8B8F" stroke-width="0.35" stroke-linecap="round" stroke-miterlimit="10" d="M28.223,21.67
	c0,0,3.31-7.591,12.075-5.749"/>
<path fill="none" stroke="#8B8B8F" stroke-width="0.35" stroke-linecap="round" stroke-miterlimit="10" d="M72.298,21.67
	c0,0-3.31-7.591-12.075-5.749"/>
<image display="none" overflow="visible" enable-background="new    " width="792" height="752" xlink:href="8D107FC8.gif"  transform="matrix(1 0 0 1 -246.7893 -94.5374)">
</image>
<polygon fill="#6E6E79" points="22.346,7.538 31.715,4.156 30.197,14.619 28.679,25.081 20.829,18 12.978,10.919 "/>
<polygon fill="#6E6E79" points="76.891,7.079 86.488,9.745 79.193,17.397 71.898,25.049 69.596,14.73 67.294,4.412 "/>
<path fill="#C7CAD5" d="M49.725,20.158c0,0,1.006,15.077-12.192,22.126h21.264C58.798,42.285,49.583,37.194,49.725,20.158z"/>
<path d="M39.422,65.913c0,0,13.979,6.599,21.863-7.36h0.979c0,0,0.68,13.433-8.458,14.194
	C53.805,72.747,44.302,74.146,39.422,65.913z"/>
<path d="M58.379,58.878c0,0,4.229-1.032,5.226,1.279c0,0,0.747,0.232,0.569-0.755c0,0-1.315-2.076-4.729-1.496
	C59.445,57.906,57.703,58.309,58.379,58.878z"/>
<path fill="#EC1D5D" d="M60.054,68.102c0,0-2.98-1.965-5.041,1.554c0,0,2.379-1.839-0.729-0.888l0,0
	c-3.107,0.951-3.266,2.821-3.266,2.821s-0.793,1.554,3.012,0.888C54.031,72.477,58.365,71.982,60.054,68.102z"/>
</svg>
