<?xml version="1.0" encoding="utf-8"?>
<!-- Generator: Adobe Illustrator 16.0.0, SVG Export Plug-In . SVG Version: 6.00 Build 0)  -->
<!DOCTYPE svg PUBLIC "-//W3C//DTD SVG 1.1//EN" "http://www.w3.org/Graphics/SVG/1.1/DTD/svg11.dtd">
<svg version="1.1" id="Layer_1" xmlns="http://www.w3.org/2000/svg" xmlns:xlink="http://www.w3.org/1999/xlink" x="0px" y="0px"
	 width="140.25px" height="118.584px" viewBox="-19.364 -11.933 140.25 118.584"
	 enable-background="new -19.364 -11.933 140.25 118.584" xml:space="preserve">
<rect x="16.725" y="10.808" transform="matrix(0.9404 -0.3402 0.3402 0.9404 -6.1018 10.3141)" fill="#8B8B8F" width="19.276" height="23.499"/>
<rect x="64.15" y="10.639" transform="matrix(0.9637 0.267 -0.267 0.9637 8.655 -18.8864)" fill="#8B8B8F" width="19.274" height="23.498"/>
<ellipse fill="#9C9C9C" cx="50.07" cy="49.797" rx="35.92" ry="37.204"/>
<ellipse fill="#C7CAD5" cx="50.081" cy="61.906" rx="19.835" ry="21.74"/>
<path d="M49.33,65.365c10.14,0,11.265,10.59,11.265,10.59c0.043-11.276-10.813-11.908-10.813-11.908
	c-10.351,0-9.701,8.755-9.701,8.755C42.102,64.559,49.33,65.365,49.33,65.365z"/>
<path d="M50.1,61.685c0,0-9.411,0.25-9.447-7.201c0,0,0.071-7.237,9.447-7.237c0,0,8.769,0.145,8.697,7.219
	c0,0-0.392,7.221-8.413,7.22c0,0,4.029-0.181,4.741-7.202c0,0,0.321-2.424-5.025-2.709V61.685z"/>
<ellipse cx="37.533" cy="32.982" rx="4.336" ry="5.58"/>
<ellipse cx="65.622" cy="32.982" rx="4.336" ry="5.58"/>
<ellipse fill="#FFFFFF" cx="36.28" cy="30.701" rx="2.142" ry="2.756"/>
<ellipse fill="#FFFFFF" cx="64.405" cy="30.701" rx="2.142" ry="2.756"/>
<image display="none" overflow="visible" enable-background="new    " width="792" height="752" xlink:href="8D107FC8.gif"  transform="matrix(1 0 0 1 -246.7893 -94.5374)">
</image>
<polygon fill="#6E6E79" points="22.346,11.538 31.715,8.156 30.197,18.619 28.679,29.081 20.829,22 12.978,14.919 "/>
<polygon fill="#6E6E79" points="76.891,11.079 86.488,13.745 79.193,21.397 71.898,29.049 69.596,18.73 67.294,8.412 "/>
<path fill="#C7CAD5" d="M49.725,24.158c0,0,1.006,15.077-12.192,22.126h21.264C58.798,46.285,49.583,41.194,49.725,24.158z"/>
</svg>
